<?xml version="1.0" standalone="no"?>
<!DOCTYPE svg PUBLIC "-//W3C//DTD SVG 20010904//EN"
 "http://www.w3.org/TR/2001/REC-SVG-20010904/DTD/svg10.dtd">
<svg version="1.0" xmlns="http://www.w3.org/2000/svg"
 width="587.000000pt" height="262.000000pt" viewBox="0 0 587.000000 262.000000"
 preserveAspectRatio="xMidYMid meet">
<metadata>
Created by potrace 1.13, written by Peter Selinger 2001-2015
</metadata>
<g transform="translate(0.000000,262.000000) scale(0.100000,-0.100000)"
fill="#000000" stroke="none">
<path d="M1180 2595 c-6 -8 -275 -391 -596 -852 l-584 -838 0 -112 0 -113 590
0 590 0 0 -320 0 -320 110 0 110 0 0 320 0 320 190 0 190 0 0 95 0 95 -190 0
-190 0 0 870 0 870 -104 0 c-78 0 -106 -4 -116 -15z m-3 -1722 c-2 -2 -220 -2
-484 -1 l-480 3 481 694 481 694 3 -693 c1 -381 1 -695 -1 -697z"/>
<path d="M5260 2595 c-6 -8 -275 -391 -596 -852 l-584 -838 0 -112 0 -113 590
0 590 0 0 -320 0 -320 110 0 110 0 0 320 0 320 190 0 190 0 0 95 0 95 -190 0
-190 0 0 870 0 870 -104 0 c-78 0 -106 -4 -116 -15z m-3 -1722 c-2 -2 -220 -2
-484 -1 l-480 3 481 694 481 694 3 -693 c1 -381 1 -695 -1 -697z"/>
<path d="M2766 2010 c-159 -25 -273 -72 -388 -159 -215 -163 -320 -438 -320
-841 0 -404 104 -677 321 -842 169 -128 357 -177 631 -165 164 7 275 33 385
88 306 153 447 443 447 919 0 476 -141 766 -447 919 -121 61 -220 82 -410 86
-88 2 -187 0 -219 -5z m341 -155 c218 -41 381 -196 453 -430 66 -218 66 -612
0 -830 -89 -288 -305 -446 -608 -445 -193 1 -339 56 -451 169 -145 146 -211
361 -211 691 0 332 65 545 211 691 142 143 366 200 606 154z"/>
<path d="M2661 1426 c-87 -48 -50 -186 49 -186 51 0 100 49 100 99 0 75 -83
124 -149 87z"/>
<path d="M3091 1426 c-87 -48 -50 -186 49 -186 51 0 100 49 100 99 0 75 -83
124 -149 87z"/>
<path d="M2909 969 c-56 -8 -98 -29 -167 -81 -75 -58 -112 -112 -112 -165 0
-24 2 -43 5 -43 3 0 29 18 58 40 81 61 160 93 243 98 95 6 165 -16 268 -85 43
-29 81 -53 83 -53 9 0 1 75 -11 98 -23 45 -132 141 -188 166 -62 28 -115 35
-179 25z"/>
</g>
</svg>
